<svg width="32" height="32" viewBox="0 0 32 32" fill="none" xmlns="http://www.w3.org/2000/svg">
<g id="icon_memo">
<rect id="&#233;&#149;&#183;&#230;&#150;&#185;&#229;&#189;&#162; 47" opacity="0.01" width="32" height="32" fill="#FF963C"/>
<g id="&#227;&#130;&#176;&#227;&#131;&#171;&#227;&#131;&#188;&#227;&#131;&#151; 139">
<path id="&#227;&#131;&#145;&#227;&#130;&#185; 43" d="M29.5491 10.6651L28.5569 9.67398C27.9562 9.07205 26.9812 9.07327 26.3793 9.67398L25.452 10.6025L28.6208 13.7712L29.5491 12.8438C30.1499 12.242 30.1499 11.267 29.5491 10.6651H29.5491Z" fill="#FF963C"/>
<path id="&#227;&#131;&#145;&#227;&#130;&#185; 44" d="M16.76 19.2868V22.4561H19.9294L27.7571 14.6284L24.5879 11.459L16.76 19.2868Z" fill="#FF963C"/>
<rect id="&#233;&#149;&#183;&#230;&#150;&#185;&#229;&#189;&#162; 12" x="9.34717" y="9.93436" width="8.9516" height="1.49193" fill="#FF963C"/>
<rect id="&#233;&#149;&#183;&#230;&#150;&#185;&#229;&#189;&#162; 13" x="9.34717" y="15.3984" width="8.9516" height="1.49193" fill="#FF963C"/>
<rect id="&#233;&#149;&#183;&#230;&#150;&#185;&#229;&#189;&#162; 14" x="9.36633" y="20.8626" width="5.47042" height="1.49193" fill="#FF963C"/>
<path id="&#227;&#131;&#145;&#227;&#130;&#185; 45" d="M22.5858 26.5985C22.5858 26.826 22.4027 27.0117 22.1775 27.0129H5.36658C5.14148 27.0117 4.9596 26.826 4.95838 26.5985V5.40259C4.9596 5.17407 5.14149 4.98828 5.36658 4.98718H22.1775C22.4027 4.98828 22.5858 5.17407 22.5858 5.40259V11.3897L24.5441 9.40253V5.40259C24.543 4.07593 23.4861 3.0011 22.1775 3H5.36658C4.05933 3.0011 3.00147 4.07593 3 5.40259V26.5985C3.00146 27.9252 4.05933 28.9989 5.36658 29H22.1775C23.4861 28.9989 24.543 28.7748 24.5441 27.4482V19.9488L22.5858 21.9359V26.5985Z" fill="#FF963C"/>
</g>
</g>
</svg>
